<svg width="105" height="28" viewBox="0 0 105 28" fill="none" xmlns="http://www.w3.org/2000/svg">
<path d="M-0.0062499 -1.90735e-06H16.7938C19.5938 -1.90735e-06 21.6204 0.639999 22.8738 1.92C24.1538 3.17333 24.7938 5.2 24.7938 8V11.6C24.7938 13.8133 24.4204 15.5333 23.6738 16.76C22.9538 17.9867 21.7937 18.8 20.1937 19.2L25.1938 28H17.3938L12.7938 19.6H7.19375V28H-0.0062499V-1.90735e-06ZM17.5938 8C17.5938 6.4 16.7938 5.6 15.1938 5.6H7.19375V14H15.1938C16.7938 14 17.5938 13.2 17.5938 11.6V8ZM28.7828 -1.90735e-06H44.7828C47.3961 -1.90735e-06 49.3161 0.599998 50.5428 1.8C51.7695 2.97333 52.3828 4.77333 52.3828 7.2C52.3828 8.8 52.0361 10.1067 51.3428 11.12C50.6495 12.1067 49.7961 12.8 48.7828 13.2C50.9428 13.7867 52.4095 15.2267 53.1828 17.52C53.4495 18.3467 53.5828 19.3067 53.5828 20.4C53.5828 23.0133 52.9695 24.9333 51.7428 26.16C50.5161 27.3867 48.5961 28 45.9828 28H28.7828V-1.90735e-06ZM46.3828 19.2C46.3828 17.6 45.5828 16.8 43.9828 16.8H35.9828V22.4H43.9828C45.5828 22.4 46.3828 21.6 46.3828 20V19.2ZM45.1828 8C45.1828 6.4 44.3828 5.6 42.7828 5.6H35.9828V11.2H42.7828C44.3828 11.2 45.1828 10.4 45.1828 8.8V8ZM90.3969 22.4H104.997V28H83.1969V-1.90735e-06H90.3969V22.4Z" fill="white"/>
<path d="M70.3813 22.4H55.5813V16.8L65.1813 -1.90735e-06H73.1813L63.5813 16.8H70.3813V10.8H77.5813V16.8H80.3813V22.4H77.5813V28H70.3813V22.4Z" fill="#A45DDC"/>
</svg>
