<svg width="70" height="70" viewBox="0 0 70 70" fill="none" xmlns="http://www.w3.org/2000/svg">
<path d="M20.3859 54.8762C22.7352 55.1567 25.3748 56.6786 27.5839 56.9473C29.8048 57.2278 30.4921 55.4349 30.4921 55.4349C30.4921 55.4349 32.9913 54.8762 35.6187 54.8118C38.2488 54.7382 40.7384 55.3588 40.7384 55.3588C40.7384 55.3588 41.2211 56.4645 42.1224 56.9473C43.0236 57.4395 44.964 57.5061 46.2076 56.1959C47.4536 54.8762 50.7779 53.2139 52.6446 52.1747C54.5231 51.1332 54.1784 49.5449 52.999 49.0621C51.8196 48.5794 50.8541 47.8185 50.9278 46.3584C50.992 44.9103 49.8863 43.9449 49.8863 43.9449C49.8863 43.9449 50.8541 40.7585 49.9529 38.119C49.0517 35.4916 46.0793 31.266 43.7942 28.0891C41.5091 24.9027 43.4493 21.2241 41.3688 16.523C39.288 11.8147 33.8926 12.093 30.9845 14.0998C28.0763 16.1068 28.9679 21.0837 29.1082 23.445C29.2485 25.7944 29.1724 27.4755 28.9037 28.0796C28.635 28.6931 26.7589 30.9212 25.5129 32.7879C24.2693 34.664 23.3679 38.5376 22.4572 40.1356C21.5654 41.7241 22.1885 43.1722 22.1885 43.1722C22.1885 43.1722 21.5656 43.3861 21.0733 44.4278C20.5905 45.4574 19.6251 45.9496 17.8868 46.285C16.1604 46.6392 16.1604 47.7522 16.5766 48.9982C16.9951 50.2418 16.5766 50.9385 16.0938 52.527C15.6112 54.1152 18.0271 54.5979 20.3859 54.8762ZM44.807 47.6305C46.0411 48.1703 47.815 47.4189 48.3548 46.8791C48.8923 46.3417 49.2727 45.5427 49.2727 45.5427C49.2727 45.5427 49.8125 45.8114 49.7578 46.665C49.7006 47.5306 50.1287 48.7647 50.9371 49.1927C51.7456 49.6184 52.9797 50.2128 52.3401 50.8073C51.6885 51.4018 48.0837 52.8523 47.0065 53.9841C45.9389 55.1088 44.5359 56.0291 43.6822 55.758C42.8191 55.4894 42.0652 54.31 42.4363 52.5836C42.8191 50.8644 43.1425 48.9786 43.0878 47.9015C43.0308 46.8243 42.8191 45.3739 43.0878 45.1598C43.3565 44.9481 43.7846 45.0503 43.7846 45.0503C43.7846 45.0503 43.5703 47.0933 44.807 47.6305ZM36.7983 18.5299C37.9872 18.5299 38.9455 19.7093 38.9455 21.1598C38.9455 22.1894 38.4627 23.0812 37.7565 23.5093C37.5782 23.4356 37.3926 23.3523 37.1882 23.2666C37.6162 23.055 37.9133 22.5153 37.9133 21.8922C37.9133 21.0766 37.4117 20.4061 36.7815 20.4061C36.168 20.4061 35.6566 21.0765 35.6566 21.8922C35.6566 22.1896 35.7305 22.4867 35.8517 22.7197C35.4807 22.5698 35.1454 22.4416 34.8767 22.3393C34.7365 21.9849 34.6532 21.5855 34.6532 21.1599C34.6533 19.7095 35.6091 18.5299 36.7983 18.5299ZM33.8543 23.0622C34.4394 23.1645 36.0467 23.8612 36.6413 24.0752C37.2358 24.2797 37.8944 24.6601 37.8302 25.0406C37.7565 25.4329 37.4498 25.4329 36.6413 25.9252C35.8423 26.408 34.097 27.4851 33.5381 27.5588C32.9817 27.6325 32.6655 27.3185 32.0708 26.9357C31.4763 26.5457 30.3613 25.635 30.6417 25.1523C30.6417 25.1523 31.5143 24.4842 31.8949 24.1418C32.2754 23.7874 33.2598 22.9528 33.8543 23.0622ZM31.2909 18.9485C32.2278 18.9485 32.9911 20.0637 32.9911 21.4381C32.9911 21.6878 32.9626 21.9207 32.9175 22.1538C32.6844 22.2275 32.4515 22.3488 32.2278 22.5438C32.1185 22.6366 32.0161 22.7197 31.9235 22.8125C32.0708 22.5343 32.1279 22.1348 32.0613 21.7163C31.9329 20.9744 31.4312 20.4252 30.9389 20.4988C30.4443 20.5821 30.1494 21.2622 30.2683 22.0137C30.3991 22.7746 30.8913 23.3237 31.393 23.2406C31.4216 23.2311 31.4477 23.2216 31.4763 23.212C31.2362 23.4451 31.0126 23.6495 30.7796 23.816C30.1019 23.4996 29.6002 22.5533 29.6002 21.4381C29.6003 20.0542 30.3516 18.9485 31.2909 18.9485ZM26.0715 36.9396C27.0369 35.4179 27.6598 32.0911 28.6253 30.9854C29.6003 29.8821 30.3516 27.5304 30.0093 26.4913C30.0093 26.4913 32.0899 28.9808 33.5381 28.5719C34.9886 28.1533 38.2488 25.7303 38.7314 26.1465C39.2142 26.5649 43.366 35.696 43.7844 38.6042C44.203 41.51 43.5063 43.7311 43.5063 43.7311C43.5063 43.7311 41.9179 43.3125 41.7133 44.2779C41.5088 45.2528 41.5088 48.7841 41.5088 48.7841C41.5088 48.7841 39.3616 51.7564 36.0372 52.2486C32.7128 52.7313 31.0482 52.3794 31.0482 52.3794L29.1816 50.2416C29.1816 50.2416 30.6322 50.0277 30.4276 48.57C30.2231 47.1219 25.9951 45.1148 25.2341 43.3123C24.4735 41.5099 25.0941 38.4638 26.0715 36.9396ZM17.8511 47.8446C18.0175 47.1314 20.1718 47.1314 20.9994 46.6296C21.8269 46.1279 21.9932 44.6869 22.6615 44.3065C23.3201 43.9164 24.5377 45.3005 25.0394 46.0802C25.5317 46.8412 27.4174 50.1679 28.1879 50.9953C28.9678 51.83 29.6836 52.9357 29.46 53.9297C29.2485 54.9236 28.0761 55.6489 28.0761 55.6489C27.0276 55.9723 24.1027 54.7096 22.7735 54.1531C21.4444 53.5944 18.0629 53.4278 17.6278 52.9357C17.1807 52.434 17.8417 51.3282 18.0176 50.2795C18.1745 49.219 17.6823 48.5603 17.8511 47.8446Z" fill="white"/>
</svg>
