<svg width="59" height="61" viewBox="0 0 59 61" fill="none" xmlns="http://www.w3.org/2000/svg">
<path d="M44.1002 32.0131C44.0771 27.6406 45.99 24.3404 49.8619 21.91C47.6955 18.7051 44.4229 16.9418 40.1016 16.5963C36.0107 16.2627 31.5396 19.0625 29.9033 19.0625C28.1748 19.0625 24.2107 16.7154 21.0994 16.7154C14.6693 16.8227 7.83594 22.0172 7.83594 32.585C7.83594 35.7064 8.38906 38.9312 9.49531 42.2592C10.9703 46.6316 16.2941 57.3543 21.8484 57.1756C24.7523 57.1041 26.8035 55.043 30.5832 55.043C34.2477 55.043 36.149 57.1756 39.3871 57.1756C44.9875 57.0922 49.8043 47.3465 51.2102 42.9621C43.6969 39.3045 44.1002 32.2395 44.1002 32.0131ZM37.5779 12.4502C40.7238 8.59004 40.4357 5.07539 40.3436 3.8125C37.5664 3.9793 34.3514 5.76641 32.5191 7.97051C30.5025 10.3295 29.3156 13.2484 29.5691 16.5367C32.5768 16.775 35.3193 15.1785 37.5779 12.4502Z" fill="white"/>
</svg>
