<svg width="682" height="71" viewBox="0 0 682 71" fill="none" xmlns="http://www.w3.org/2000/svg">
<path d="M2.38419e-07 -4.76837e-06H42C49 -4.76837e-06 54.0667 1.6 57.2 4.8C60.4 7.93333 62 13 62 20V29C62 34.5333 61.0667 38.8333 59.2 41.9C57.4 44.9667 54.5 47 50.5 48L63 70H43.5L32 49H18V70H2.38419e-07V-4.76837e-06ZM44 20C44 16 42 14 38 14H18V35H38C42 35 44 33 44 29V20ZM72.9727 -4.76837e-06H112.973C119.506 -4.76837e-06 124.306 1.5 127.373 4.5C130.439 7.43333 131.973 11.9333 131.973 18C131.973 22 131.106 25.2667 129.373 27.8C127.639 30.2667 125.506 32 122.973 33C128.373 34.4667 132.039 38.0667 133.973 43.8C134.639 45.8667 134.973 48.2667 134.973 51C134.973 57.5333 133.439 62.3333 130.373 65.4C127.306 68.4667 122.506 70 115.973 70H72.9727V-4.76837e-06ZM116.973 48C116.973 44 114.973 42 110.973 42H90.9727V56H110.973C114.973 56 116.973 54 116.973 50V48ZM113.973 20C113.973 16 111.973 14 107.973 14H90.9727V28H107.973C111.973 28 113.973 26 113.973 22V20ZM229.008 56H265.508V70H211.008V-4.76837e-06H229.008V56ZM293.531 57C297.065 57 301.065 56.3333 305.531 55V49H291.031C290.031 49 289.198 49.3333 288.531 50C287.865 50.6667 287.531 51.5 287.531 52.5V53.5C287.531 54.5 287.865 55.3333 288.531 56C289.198 56.6667 290.031 57 291.031 57H293.531ZM275.031 18C287.231 16.6667 298.231 16 308.031 16C312.565 16 316.198 17.3667 318.931 20.1C321.665 22.8333 323.031 26.4667 323.031 31V70H307.531L306.531 65C303.398 67.0667 300.165 68.6 296.831 69.6C293.565 70.5333 290.798 71 288.531 71H285.031C280.498 71 276.865 69.6333 274.131 66.9C271.398 64.1667 270.031 60.5333 270.031 56V51.5C270.031 46.9667 271.398 43.3333 274.131 40.6C276.865 37.8667 280.498 36.5 285.031 36.5H305.531V32.5C305.531 31.5 305.198 30.6667 304.531 30C303.865 29.3333 303.031 29 302.031 29C297.698 29 292.898 29.2 287.631 29.6C282.431 30 278.231 30.3 275.031 30.5V18ZM357.504 56.5C361.037 56.5 365.037 55.8333 369.504 54.5V17H387.004V70H371.504L370.504 65C367.371 67.0667 364.137 68.6 360.804 69.6C357.537 70.5333 354.771 71 352.504 71H348.004C343.471 71 339.837 69.6333 337.104 66.9C334.371 64.1667 333.004 60.5333 333.004 56V17H350.504V53C350.504 54 350.837 54.8333 351.504 55.5C352.171 56.1667 353.004 56.5 354.004 56.5H357.504ZM427.469 30.5C423.935 30.5 419.935 31.1667 415.469 32.5V70H397.969V17H413.469L414.469 22C417.602 19.9333 420.802 18.4333 424.069 17.5C427.402 16.5 430.202 16 432.469 16H436.969C441.502 16 445.135 17.3667 447.869 20.1C450.602 22.8333 451.969 26.4667 451.969 31V70H434.469V34C434.469 33 434.135 32.1667 433.469 31.5C432.802 30.8333 431.969 30.5 430.969 30.5H427.469ZM508.957 69C496.49 70.3333 485.49 71 475.957 71C471.424 71 467.79 69.6333 465.057 66.9C462.324 64.1667 460.957 60.5333 460.957 56V33C460.957 28 462.357 24.1 465.157 21.3C468.024 18.4333 471.957 17 476.957 17H508.957V30.5H482.457C479.79 30.5 478.457 31.8333 478.457 34.5V54C478.457 55 478.79 55.8333 479.457 56.5C480.124 57.1667 480.957 57.5 481.957 57.5C487.957 57.5 496.957 57 508.957 56V69ZM535.438 18C541.904 16.6667 547.571 16 552.438 16H556.938C561.471 16 565.104 17.3667 567.838 20.1C570.571 22.8333 571.938 26.4667 571.938 31V70H554.438V33C554.438 32 554.104 31.1667 553.438 30.5C552.771 29.8333 551.938 29.5 550.938 29.5H547.438C544.904 29.5 542.571 29.6333 540.438 29.9C538.371 30.1667 536.704 30.3667 535.438 30.5V70H517.938V-4.76837e-06H535.438V18ZM602.426 28.5C599.759 28.5 598.426 29.8333 598.426 32.5V38H615.426V32.5C615.426 29.8333 614.092 28.5 611.426 28.5H602.426ZM630.926 69C618.059 70.3333 606.392 71 595.926 71C591.392 71 587.759 69.6333 585.026 66.9C582.292 64.1667 580.926 60.5333 580.926 56V32C580.926 27 582.326 23.1 585.126 20.3C587.992 17.4333 591.926 16 596.926 16H616.926C621.926 16 625.826 17.4333 628.626 20.3C631.492 23.1 632.926 27 632.926 32V50.5H598.426V54.5C598.426 55.5 598.759 56.3333 599.426 57C600.092 57.6667 600.926 58 601.926 58C608.526 58 618.192 57.5 630.926 56.5V69ZM673.387 31.5C669.187 31.5 664.853 32.5 660.387 34.5V70H642.887V17H658.387L659.387 23.5C665.12 18.5 671.12 16 677.387 16H681.887V31.5H673.387Z" fill="white"/>
<path d="M177.969 56H140.969V42L164.969 -4.76837e-06H184.969L160.969 42H177.969V27H195.969V42H202.969V56H195.969V70H177.969V56Z" fill="#A45DDC"/>
</svg>
